External Loads File
version=1
nRows=46
nColumns=13
Range=5.000000e-03-10 seconds
endheader
time 	forceRightX 	forceRightY 	forceRightZ 	pointRightX 	pointRightY 	pointRightZ 	forceLeftX 	forceLeftY 	forceLeftZ 	pointLeftX 	pointLeftY 	pointLeftZ 		
7.505000 -36.564870 735.843397 -0.000000 0.443320 0.259111 -0.106894 -72.639166 -131.100864 -0.000000 0.155710 0.333056 -0.354112
7.510000 -24.373908 759.107613 -0.000000 0.440172 0.248644 -0.107095 -60.122942 -115.491799 -0.000000 0.159216 0.343734 -0.354058
7.515000 -10.180734 781.682538 -0.000000 0.436422 0.238464 -0.107421 -48.215967 -101.210074 -0.000000 0.163395 0.353761 -0.354284
7.520000 6.961290 802.880609 -0.000000 0.432138 0.228537 -0.107780 -37.600423 -88.244554 -0.000000 0.167970 0.363752 -0.354059
7.525000 26.822760 822.023971 -0.000000 0.427150 0.218844 -0.107947 -28.590789 -76.689654 -0.000000 0.173188 0.373526 -0.354031
7.530000 48.514947 838.536530 -0.000000 0.421654 0.209495 -0.107944 -21.332690 -66.624569 -0.000000 0.178902 0.383139 -0.354109
7.535000 71.979074 851.873421 -0.000000 0.415316 0.200440 -0.107489 -15.983847 -57.998193 -0.000000 0.185062 0.392460 -0.353953
7.540000 95.326984 861.694697 -0.000000 0.408870 0.191922 -0.107528 -12.507521 -50.654893 -0.000000 0.191769 0.401544 -0.353847
7.545000 118.460975 867.662441 -0.000000 0.401927 0.183843 -0.107547 -10.917099 -44.238943 -0.000000 0.198869 0.410229 -0.353608
7.550000 140.772026 869.609838 -0.000000 0.394644 0.176098 -0.107348 -11.086413 -38.255073 -0.000000 0.206336 0.418472 -0.353189
7.555000 162.063043 867.386021 -0.000000 0.386947 0.168989 -0.107118 -12.816773 -32.089250 -0.000000 0.214286 0.426359 -0.352637
7.560000 183.166595 860.621119 -0.000000 0.378936 0.162288 -0.106970 -15.845411 -25.022790 -0.000000 0.223094 0.433817 -0.353682
7.565000 202.907292 849.292799 -0.000000 0.370653 0.156173 -0.106903 -19.697948 -16.321121 -0.000000 0.232497 0.440660 -0.357405
7.570000 215.929136 834.527492 -0.000000 0.362274 0.150596 -0.106926 -23.747875 -5.438882 -0.000000 0.240410 0.446990 -0.352461
7.575000 230.097148 814.118368 -0.000000 0.353431 0.145679 -0.106712 -27.454057 8.346426 -0.000000 0.249585 0.452996 -0.351483
7.580000 241.680369 788.600240 -0.000000 0.344417 0.141364 -0.106458 -30.063355 25.226722 -0.000000 0.259020 0.457729 -0.351009
7.585000 251.029494 757.426113 -0.000000 0.335219 0.137466 -0.106274 -30.965398 45.197992 -0.000000 0.268513 0.461936 -0.350896
7.590000 257.463158 720.373651 -0.000000 0.325901 0.134276 -0.106014 -29.744159 67.934159 -0.000000 0.277987 0.465258 -0.351058
7.595000 261.438629 676.991306 -0.000000 0.316490 0.131778 -0.105692 -26.028004 92.906947 -0.000000 0.287668 0.468039 -0.351234
7.600000 261.994431 627.663508 -0.000000 0.307000 0.129963 -0.105314 -19.681043 119.333121 -0.000000 0.297227 0.469894 -0.351767
7.605000 258.845476 573.050071 -0.000000 0.297470 0.129006 -0.105038 -10.685569 146.387216 -0.000000 0.306561 0.471133 -0.352410
7.610000 251.971831 514.315081 -0.000000 0.287951 0.128797 -0.104804 0.788900 173.416609 -0.000000 0.315645 0.472058 -0.353123
7.615000 241.595583 453.082583 -0.000000 0.278410 0.129710 -0.104689 14.341959 200.198431 -0.000000 0.324228 0.472226 -0.353923
7.620000 228.808631 390.804131 -0.000000 0.268957 0.130607 -0.104529 29.695451 226.952835 -0.000000 0.332806 0.471441 -0.355078
7.625000 214.233861 329.033685 -0.000000 0.259447 0.132533 -0.104327 46.280755 254.172329 -0.000000 0.341009 0.470108 -0.356167
7.630000 198.446430 268.923817 -0.000000 0.249972 0.135142 -0.104201 63.331533 282.412953 -0.000000 0.348772 0.468481 -0.357357
7.635000 182.203989 210.861755 -0.000000 0.240653 0.138366 -0.104216 80.200916 311.955042 -0.000000 0.356164 0.466126 -0.358463
7.640000 165.924067 154.750532 -0.000000 0.231443 0.142166 -0.104115 96.125418 342.625839 -0.000000 0.363309 0.463222 -0.358897
7.645000 149.467346 100.369986 -0.000000 0.222508 0.146566 -0.104016 109.761617 373.923989 -0.000000 0.370144 0.459875 -0.358928
7.650000 132.546149 47.140099 -0.000000 0.213722 0.151437 -0.103741 120.263216 404.873693 -0.000000 0.376700 0.455395 -0.359608
7.655000 114.339641 -5.070230 -0.000000 0.205735 0.157013 -0.103666 126.235748 434.571636 -0.000000 0.383370 0.450142 -0.360295
7.660000 94.070003 -56.017452 -0.000000 0.198219 0.162796 -0.103407 126.373816 462.218299 -0.000000 0.389703 0.444270 -0.360452
7.665000 71.089147 -105.243219 -0.000000 0.191380 0.169258 -0.103253 120.860758 486.840772 -0.000000 0.396068 0.437925 -0.360524
7.670000 45.221017 -151.710160 -0.000000 0.185140 0.175827 -0.103101 109.492716 507.910314 -0.000000 0.402182 0.430938 -0.360537
7.675000 16.577432 -194.303699 -0.000000 0.179609 0.182827 -0.102961 93.427867 525.013508 -0.000000 0.408194 0.423292 -0.360580
7.680000 -14.246854 -231.768470 -0.000000 0.174526 0.190020 -0.102925 73.748583 538.348054 -0.000000 0.414084 0.414995 -0.360584
7.685000 -46.225048 -262.901199 -0.000000 0.169945 0.197628 -0.102876 51.585335 548.645564 -0.000000 0.419709 0.406130 -0.360689
7.690000 -78.218452 -286.590630 -0.000000 0.165278 0.205591 -0.103691 28.613725 556.897819 -0.000000 0.424978 0.396797 -0.360750
7.695000 -108.004456 -302.222007 -0.000000 0.161676 0.214010 -0.103724 4.805097 564.208585 -0.000000 0.429807 0.387219 -0.360687
7.700000 -134.530014 -309.279834 -0.000000 0.158452 0.222707 -0.103841 -17.719716 571.451678 -0.000000 0.434221 0.377139 -0.360660
7.705000 -156.225167 -307.950268 -0.000000 0.155693 0.231723 -0.104008 -38.462827 579.452719 -0.000000 0.438248 0.366863 -0.360623
7.710000 -171.862740 -298.993103 -0.000000 0.153556 0.241044 -0.104134 -57.112116 588.864546 -0.000000 0.441587 0.356417 -0.360507
7.715000 -181.323895 -283.236433 -0.000000 0.151481 0.250810 -0.104473 -72.144736 600.317090 -0.000000 0.444372 0.345735 -0.360384
7.720000 -183.961804 -262.428331 -0.000000 0.149931 0.260693 -0.104807 -84.183374 614.064523 -0.000000 0.446540 0.334895 -0.360263
7.725000 -180.432890 -237.998670 -0.000000 0.149025 0.270943 -0.105033 -92.338465 630.388807 -0.000000 0.448193 0.323871 -0.359960
7.730000 -171.347337 -211.719703 -0.000000 0.148608 0.281195 -0.105322 -96.939230 649.307159 -0.000000 0.449303 0.312625 -0.359935
